<svg width="153" height="30" viewBox="0 0 153 30" fill="none" xmlns="http://www.w3.org/2000/svg">
<path fill-rule="evenodd" clip-rule="evenodd" d="M17.4836 12.5145H27.5755L30 17.4851H17.4836V30H12.5134V17.4851H0V12.5145H12.5134V0H17.4836V12.5145ZM49 30H43.284L29 0H34.7164L49 30Z" fill="#1661EE"/>
<path fill-rule="evenodd" clip-rule="evenodd" d="M78.3071 10.2826H80.144L75.9899 21.8866C75.5366 23.1532 74.3152 24 72.9443 24H71.1804V22.6204H72.8227C73.5313 22.6204 74.1646 22.1874 74.4101 21.5368L74.5056 21.2818H73.9076L69.9775 10.2826H71.8786L75.125 19.9652L78.3071 10.2826ZM91.6992 15.7615C91.6992 19.1077 90.2891 21.5118 87.3634 21.5118C86.146 21.5118 85.1421 21.0942 84.3948 20.257V24H82.6217V10.2826H84.117L84.2663 11.809C85.0999 10.6805 86.2744 10.0322 87.6412 10.0322C90.6312 10.0322 91.6992 12.3111 91.6992 15.7615ZM89.7981 15.7615C89.7981 12.8762 88.9866 11.4332 87.214 11.4332C85.9538 11.4332 84.9928 12.3326 84.3948 13.2106V18.6894C84.9714 19.547 85.9109 20.0695 86.9789 20.0695C88.8586 20.0695 89.7981 18.7104 89.7981 15.7615ZM64.3605 10.0322C63.0366 10.0322 61.6484 10.6385 60.7725 11.7885V7H59V21.2818H60.7725V13.2524C61.3491 12.395 62.5023 11.4122 63.8053 11.4122C65.1299 11.4122 65.7493 11.9976 65.7493 13.3143V21.2818H67.5219V13.2938C67.5219 11.245 66.5603 10.0322 64.3605 10.0322ZM128.092 20.2996L127.666 21.5323C126.704 21.4082 125.935 20.948 125.616 19.9652C124.803 20.9894 123.544 21.5118 122.092 21.5118C119.827 21.5118 118.46 20.1744 118.46 18.1249C118.46 15.8664 120.318 14.5906 123.736 14.5906H125.379V13.6707C125.379 12.0815 124.376 11.4955 122.71 11.4955C121.963 11.4955 120.938 11.6423 119.784 12.039L119.314 10.7429C120.681 10.2413 121.878 10.0322 122.966 10.0322C125.764 10.0322 127.174 11.4122 127.174 13.5863V18.8985C127.174 19.777 127.473 20.1114 128.092 20.2996ZM125.379 15.7825H123.758C121.258 15.7825 120.36 16.6819 120.36 18.104C120.36 19.484 121.065 20.1947 122.539 20.1947C123.65 20.1947 124.718 19.6302 125.379 18.6271V15.7825ZM104.004 15.4481C104.004 15.8245 103.982 16.1594 103.961 16.3889H96.3998C96.4856 18.9609 97.9588 20.0695 99.6891 20.0695C100.714 20.0695 101.718 19.8184 102.701 19.0442L103.534 20.2367C102.487 21.0318 101.077 21.5118 99.6891 21.5118C96.3998 21.5118 94.5416 19.212 94.5416 15.7825C94.5416 12.4579 96.4636 10.0322 99.3684 10.0322C102.274 10.0322 104.004 12.1026 104.004 15.4481ZM102.295 15.0503C102.252 12.688 101.163 11.4752 99.3898 11.4752C97.788 11.4752 96.5492 12.6256 96.3998 15.0503H102.295ZM140.61 15.7615C140.61 19.1077 139.2 21.5118 136.275 21.5118C135.057 21.5118 134.053 21.0942 133.306 20.257V24H131.533V10.2826H133.028L133.178 11.809C134.011 10.6805 135.185 10.0322 136.552 10.0322C139.543 10.0322 140.61 12.3111 140.61 15.7615ZM138.709 15.7615C138.709 12.8762 137.898 11.4332 136.125 11.4332C134.865 11.4332 133.904 12.3326 133.306 13.2106V18.6894C133.883 19.547 134.822 20.0695 135.89 20.0695C137.77 20.0695 138.709 18.7104 138.709 15.7615ZM153 15.7615C153 19.1077 151.59 21.5118 148.664 21.5118C147.447 21.5118 146.443 21.0942 145.695 20.257V24H143.922V10.2826H145.418L145.567 11.809C146.401 10.6805 147.575 10.0322 148.942 10.0322C151.932 10.0322 153 12.3111 153 15.7615ZM151.099 15.7615C151.099 12.8762 150.287 11.4332 148.515 11.4332C147.255 11.4332 146.293 12.3326 145.695 13.2106V18.6894C146.272 19.547 147.211 20.0695 148.28 20.0695C150.159 20.0695 151.099 18.7104 151.099 15.7615ZM111.41 12.395L111.196 10.2826H107.031V11.6423H109.659V19.9023H107.031V21.2818H114.593V19.9023H111.431V14.6954C111.815 13.1692 112.99 11.7262 114.506 11.7262C114.976 11.7262 115.319 11.7885 115.81 11.9144L116.13 10.1993C115.596 10.0735 115.211 10.0322 114.656 10.0322C113.31 10.0322 112.072 10.8261 111.41 12.395Z" fill="#091226"/>
</svg>
