<?xml version="1.0" encoding="utf-8"?>
<!-- Generator: Adobe Illustrator 22.0.1, SVG Export Plug-In . SVG Version: 6.00 Build 0)  -->
<svg version="1.1" xmlns="http://www.w3.org/2000/svg" xmlns:xlink="http://www.w3.org/1999/xlink" x="0px" y="0px"
	 viewBox="0 0 1200 630" style="enable-background:new 0 0 1200 630;" xml:space="preserve">
<style type="text/css">
	.st0{fill:#FFFFFF;}
	.st1{fill:#1661EE;}
	.st2{fill:#091226;}
</style>
<g id="Layer_2">
	<rect class="st0" width="1200" height="630"/>
</g>
<g id="Layer_1">
	<path class="st1" d="M235.1,299.6h62.4l15,30.7h-77.4v77.4h-30.7v-77.4H127v-30.7h77.4v-77.4h30.7V299.6z M430,407.7h-35.3
		l-88.3-185.5h35.3L430,407.7z"/>
	<path class="st2" d="M611.2,285.8h11.4l-25.7,71.7c-2.8,7.8-10.4,13.1-18.8,13.1h-10.9v-8.5h10.2c4.4,0,8.3-2.7,9.8-6.7l0.6-1.6
		H584l-24.3-68h11.8l20.1,59.9L611.2,285.8z M694,319.7c0,20.7-8.7,35.6-26.8,35.6c-7.5,0-13.7-2.6-18.4-7.8v23.1h-11v-84.8h9.2
		l0.9,9.4c5.2-7,12.4-11,20.9-11C687.4,284.3,694,298.4,694,319.7z M682.2,319.7c0-17.8-5-26.8-16-26.8c-7.8,0-13.7,5.6-17.4,11
		v33.9c3.6,5.3,9.4,8.5,16,8.5C676.4,346.3,682.2,337.9,682.2,319.7z M524.9,284.3c-8.2,0-16.8,3.7-22.2,10.9v-29.6h-11v88.3h11
		v-49.6c3.6-5.3,10.7-11.4,18.8-11.4c8.2,0,12,3.6,12,11.8v49.3h11v-49.4C544.5,291.8,538.5,284.3,524.9,284.3z M919,347.8l-2.6,7.6
		c-5.9-0.8-10.7-3.6-12.7-9.7c-5,6.3-12.8,9.6-21.8,9.6c-14,0-22.5-8.3-22.5-20.9c0-14,11.5-21.9,32.6-21.9h10.2v-5.7
		c0-9.8-6.2-13.4-16.5-13.4c-4.6,0-11,0.9-18.1,3.4l-2.9-8c8.5-3.1,15.9-4.4,22.6-4.4c17.3,0,26,8.5,26,22v32.8
		C913.3,344.5,915.2,346.6,919,347.8z M902.2,319.8h-10c-15.5,0-21,5.6-21,14.4c0,8.5,4.4,12.9,13.5,12.9c6.9,0,13.5-3.5,17.6-9.7
		V319.8z M770.1,317.8c0,2.3-0.1,4.4-0.3,5.8H723c0.5,15.9,9.6,22.8,20.3,22.8c6.3,0,12.5-1.6,18.6-6.3l5.2,7.4
		c-6.5,4.9-15.2,7.9-23.8,7.9c-20.3,0-31.8-14.2-31.8-35.4c0-20.6,11.9-35.6,29.8-35.6C759.4,284.3,770.1,297.1,770.1,317.8z
		 M759.5,315.3c-0.3-14.6-7-22.1-18-22.1c-9.9,0-17.6,7.1-18.5,22.1H759.5z M996.4,319.7c0,20.7-8.7,35.6-26.8,35.6
		c-7.5,0-13.7-2.6-18.4-7.8v23.1h-11v-84.8h9.2l0.9,9.4c5.2-7,12.4-11,20.9-11C989.8,284.3,996.4,298.4,996.4,319.7z M984.6,319.7
		c0-17.8-5-26.8-16-26.8c-7.8,0-13.7,5.6-17.4,11v33.9c3.6,5.3,9.4,8.5,16,8.5C978.8,346.3,984.6,337.9,984.6,319.7z M1073,319.7
		c0,20.7-8.7,35.6-26.8,35.6c-7.5,0-13.7-2.6-18.4-7.8v23.1h-11v-84.8h9.2l0.9,9.4c5.2-7,12.4-11,20.9-11
		C1066.4,284.3,1073,298.4,1073,319.7z M1061.2,319.7c0-17.8-5-26.8-16-26.8c-7.8,0-13.7,5.6-17.4,11v33.9c3.6,5.3,9.4,8.5,16,8.5
		C1055.4,346.3,1061.2,337.9,1061.2,319.7z M815.8,298.9l-1.3-13.1h-25.8v8.4H805v51.1h-16.2v8.5h46.8v-8.5H816v-32.2
		c2.4-9.4,9.6-18.4,19-18.4c2.9,0,5,0.4,8.1,1.2l2-10.6c-3.3-0.8-5.7-1-9.1-1C827.6,284.3,819.9,289.2,815.8,298.9z"/>
</g>
</svg>
