<?xml version="1.0" encoding="UTF-8" standalone="no"?><!DOCTYPE svg PUBLIC "-//W3C//DTD SVG 1.1//EN" "http://www.w3.org/Graphics/SVG/1.1/DTD/svg11.dtd"><svg width="100%" height="100%" viewBox="0 0 280 65" version="1.1" xmlns="http://www.w3.org/2000/svg" xmlns:xlink="http://www.w3.org/1999/xlink" xml:space="preserve" xmlns:serif="http://www.serif.com/" style="fill-rule:evenodd;clip-rule:evenodd;stroke-linejoin:round;stroke-miterlimit:2;"><path d="M64.409,37.484l-26.925,0l0,26.989l-10.5,0l0,-26.989l-26.984,0l0,-10.5l26.984,0l0,-26.984l10.5,0l0,26.984l21.803,0l5.122,10.5Zm8.694,-37.484l-12.384,0l31.444,64.473l12.383,0l-31.443,-64.473Z" style="fill:#0080ff;fill-rule:nonzero;"/><path d="M150.352,20.793l3.173,0l-7.176,20.473c-0.783,2.235 -2.893,3.73 -5.261,3.73l-3.047,0l0,-2.435l2.837,0c1.224,0 2.318,-0.763 2.742,-1.912l0.165,-0.449l-1.033,0l-6.789,-19.407l3.284,0l5.608,17.083l5.497,-17.083Zm23.134,9.667c0,5.903 -2.436,10.146 -7.49,10.146c-2.103,0 -3.837,-0.738 -5.128,-2.214l0,6.604l-3.063,0l0,-24.203l2.583,0l0.258,2.693c1.44,-1.992 3.469,-3.136 5.83,-3.136c5.165,0 7.01,4.022 7.01,10.11Zm-3.284,0c0,-5.092 -1.402,-7.638 -4.464,-7.638c-2.177,0 -3.837,1.587 -4.87,3.136l0,9.667c0.996,1.513 2.619,2.435 4.464,2.435c3.247,0 4.87,-2.398 4.87,-7.6Zm-43.942,-10.11c-2.287,0 -4.685,1.07 -6.198,3.099l0,-8.449l-3.062,0l0,25.2l3.062,0l0,-14.168c0.996,-1.513 2.988,-3.247 5.239,-3.247c2.288,0 3.358,1.033 3.358,3.357l0,14.058l3.062,0l0,-14.094c0,-3.616 -1.661,-5.756 -5.461,-5.756Zm110.093,18.116l-0.737,2.176c-1.662,-0.22 -2.99,-1.032 -3.542,-2.766c-1.403,1.807 -3.579,2.73 -6.088,2.73c-3.911,0 -6.273,-2.361 -6.273,-5.977c0,-3.985 3.21,-6.236 9.114,-6.236l2.84,0l0,-1.623c0,-2.804 -1.734,-3.838 -4.612,-3.838c-1.291,0 -3.061,0.259 -5.055,0.96l-0.811,-2.288c2.361,-0.884 4.428,-1.254 6.309,-1.254c4.833,0 7.269,2.435 7.269,6.272l0,9.372c0,1.55 0.517,2.14 1.586,2.472Zm-4.686,-7.969l-2.803,0c-4.318,0 -5.868,1.586 -5.868,4.095c0,2.435 1.218,3.689 3.764,3.689c1.919,0 3.764,-0.996 4.907,-2.766l0,-5.018Zm-36.926,-0.591c0,0.664 -0.037,1.255 -0.074,1.66l-13.061,0c0.148,4.538 2.693,6.494 5.682,6.494c1.77,0 3.505,-0.443 5.202,-1.808l1.439,2.103c-1.808,1.403 -4.243,2.251 -6.641,2.251c-5.682,0 -8.892,-4.058 -8.892,-10.109c0,-5.867 3.32,-10.147 8.338,-10.147c5.019,0 8.007,3.653 8.007,9.556Zm-2.952,-0.701c-0.074,-4.169 -1.955,-6.309 -5.018,-6.309c-2.767,0 -4.907,2.03 -5.165,6.309l10.183,0Zm66.188,1.255c0,5.903 -2.436,10.146 -7.49,10.146c-2.103,0 -3.837,-0.738 -5.128,-2.214l0,6.604l-3.063,0l0,-24.203l2.583,0l0.258,2.693c1.44,-1.992 3.468,-3.136 5.829,-3.136c5.166,0 7.011,4.022 7.011,10.11Zm-3.284,0c0,-5.092 -1.402,-7.638 -4.464,-7.638c-2.177,0 -3.837,1.587 -4.87,3.136l0,9.667c0.996,1.513 2.619,2.435 4.464,2.435c3.247,0 4.87,-2.398 4.87,-7.6Zm24.686,0c0,5.903 -2.435,10.146 -7.49,10.146c-2.102,0 -3.837,-0.738 -5.128,-2.214l0,6.604l-3.062,0l0,-24.203l2.583,0l0.257,2.693c1.44,-1.992 3.468,-3.136 5.83,-3.136c5.166,0 7.01,4.022 7.01,10.11Zm-3.284,0c0,-5.092 -1.401,-7.638 -4.464,-7.638c-2.177,0 -3.837,1.587 -4.87,3.136l0,9.667c0.996,1.513 2.619,2.435 4.464,2.435c3.247,0 4.87,-2.398 4.87,-7.6Zm-68.56,-5.941l-0.37,-3.726l-7.195,0l0,2.398l4.539,0l0,14.574l-4.539,0l0,2.435l13.062,0l0,-2.435l-5.461,0l0,-9.187c0.664,-2.693 2.693,-5.239 5.313,-5.239c0.812,0 1.403,0.11 2.251,0.332l0.553,-3.026c-0.922,-0.221 -1.586,-0.295 -2.546,-0.295c-2.324,0 -4.464,1.402 -5.607,4.169Z" style="fill-rule:nonzero;"/></svg>