<?xml version="1.0" encoding="UTF-8" standalone="no"?>
<!DOCTYPE svg PUBLIC "-//W3C//DTD SVG 1.1//EN" "http://www.w3.org/Graphics/SVG/1.1/DTD/svg11.dtd">
<svg width="100%" height="100%" viewBox="0 0 10016 2327" version="1.1" xmlns="http://www.w3.org/2000/svg" xmlns:xlink="http://www.w3.org/1999/xlink" xml:space="preserve" xmlns:serif="http://www.serif.com/" style="fill-rule:evenodd;clip-rule:evenodd;stroke-linejoin:round;stroke-miterlimit:2;">
    <g transform="matrix(1,0,0,1,-63135.4,-23119)">
        <g transform="matrix(41.7198,0,0,91.068,30706.5,0)">
            <g id="Horizontal" transform="matrix(0.679783,0,0,0.781638,433.022,146.121)">
                <g transform="matrix(1.2621,0,0,0.502846,507.021,137.976)">
                    <path d="M150.352,23.031L153.525,23.031L146.349,43.505C145.566,45.74 143.456,47.234 141.088,47.234L138.041,47.234L138.041,44.8L140.878,44.8C142.102,44.8 143.196,44.036 143.62,42.888L143.785,42.438L142.752,42.438L135.963,23.031L139.247,23.031L144.855,40.115L150.352,23.031ZM173.486,32.698C173.486,38.602 171.05,42.844 165.996,42.844C163.893,42.844 162.159,42.107 160.868,40.63L160.868,47.234L157.805,47.234L157.805,23.031L160.388,23.031L160.646,25.724C162.086,23.733 164.115,22.589 166.476,22.589C171.641,22.589 173.486,26.61 173.486,32.698ZM170.202,32.698C170.202,27.607 168.8,25.061 165.738,25.061C163.561,25.061 161.901,26.648 160.868,28.197L160.868,37.864C161.864,39.377 163.487,40.299 165.332,40.299C168.579,40.299 170.202,37.901 170.202,32.698ZM126.26,22.589C123.973,22.589 121.575,23.659 120.062,25.688L120.062,17.239L117,17.239L117,42.438L120.062,42.438L120.062,28.271C121.058,26.758 123.05,25.024 125.301,25.024C127.589,25.024 128.659,26.057 128.659,28.38L128.659,42.438L131.721,42.438L131.721,28.344C131.721,24.729 130.06,22.589 126.26,22.589ZM236.353,40.705L235.616,42.88C233.954,42.661 232.626,41.849 232.074,40.115C230.671,41.922 228.495,42.844 225.986,42.844C222.075,42.844 219.713,40.484 219.713,36.868C219.713,32.883 222.923,30.632 228.827,30.632L231.667,30.632L231.667,29.009C231.667,26.205 229.933,25.171 227.055,25.171C225.764,25.171 223.994,25.43 222,26.13L221.189,23.843C223.55,22.958 225.617,22.589 227.498,22.589C232.331,22.589 234.767,25.024 234.767,28.86L234.767,38.233C234.767,39.783 235.284,40.373 236.353,40.705ZM231.667,32.735L228.864,32.735C224.546,32.735 222.996,34.322 222.996,36.831C222.996,39.266 224.214,40.52 226.76,40.52C228.679,40.52 230.524,39.524 231.667,37.754L231.667,32.735ZM194.741,32.145C194.741,32.809 194.704,33.4 194.667,33.805L181.606,33.805C181.754,38.343 184.299,40.299 187.288,40.299C189.058,40.299 190.793,39.856 192.49,38.49L193.929,40.594C192.121,41.997 189.686,42.844 187.288,42.844C181.606,42.844 178.396,38.786 178.396,32.735C178.396,26.869 181.716,22.589 186.734,22.589C191.753,22.589 194.741,26.242 194.741,32.145ZM191.789,31.443C191.715,27.275 189.834,25.135 186.771,25.135C184.004,25.135 181.864,27.165 181.606,31.443L191.789,31.443ZM257.977,32.698C257.977,38.602 255.541,42.844 250.487,42.844C248.384,42.844 246.65,42.107 245.359,40.63L245.359,47.234L242.296,47.234L242.296,23.031L244.879,23.031L245.137,25.724C246.577,23.733 248.605,22.589 250.966,22.589C256.132,22.589 257.977,26.61 257.977,32.698ZM254.693,32.698C254.693,27.607 253.291,25.061 250.229,25.061C248.052,25.061 246.392,26.648 245.359,28.197L245.359,37.864C246.355,39.377 247.978,40.299 249.823,40.299C253.07,40.299 254.693,37.901 254.693,32.698ZM279.379,32.698C279.379,38.602 276.944,42.844 271.889,42.844C269.787,42.844 268.052,42.107 266.761,40.63L266.761,47.234L263.699,47.234L263.699,23.031L266.282,23.031L266.539,25.724C267.979,23.733 270.007,22.589 272.369,22.589C277.535,22.589 279.379,26.61 279.379,32.698ZM276.095,32.698C276.095,27.607 274.694,25.061 271.631,25.061C269.454,25.061 267.794,26.648 266.761,28.197L266.761,37.864C267.757,39.377 269.38,40.299 271.225,40.299C274.472,40.299 276.095,37.901 276.095,32.698ZM207.535,26.758L207.165,23.031L199.97,23.031L199.97,25.43L204.509,25.43L204.509,40.004L199.97,40.004L199.97,42.438L213.032,42.438L213.032,40.004L207.571,40.004L207.571,30.817C208.235,28.124 210.264,25.578 212.884,25.578C213.696,25.578 214.287,25.688 215.135,25.91L215.688,22.884C214.766,22.662 214.102,22.589 213.142,22.589C210.818,22.589 208.678,23.99 207.535,26.758Z" style="fill-rule:nonzero;"/>
                </g>
                <g transform="matrix(0.0331466,0,0,0.0132063,122.127,49.6546)">
                    <path d="M13037.3,7710.26L13870,7710.26L14070,8120.33L13037.3,8120.33L13037.3,9152.79L12627.3,9152.79L12627.3,8120.33L11594.8,8120.33L11594.8,7710.26L12627.3,7710.26L12627.3,6677.83L13037.3,6677.83L13037.3,7710.26ZM15605.7,9152.79L15122.6,9152.79L13915.5,6677.83L14398.6,6677.83L15605.7,9152.79Z" style="fill:rgb(0,128,255);fill-rule:nonzero;"/>
                </g>
            </g>
        </g>
    </g>
</svg>
