<?xml version="1.0" standalone="no"?>
<!DOCTYPE svg PUBLIC "-//W3C//DTD SVG 20010904//EN"
 "http://www.w3.org/TR/2001/REC-SVG-20010904/DTD/svg10.dtd">
<svg version="1.0" 
  xmlns="http://www.w3.org/2000/svg" width="260.000000pt" height="260.000000pt" viewBox="0 0 260.000000 260.000000" preserveAspectRatio="xMidYMid meet">
  <g transform="translate(0.000000,260.000000) scale(0.100000,-0.100000)" fill="#000000" stroke="none">
    <path d="M673 1772 c-1 -180 -2 -330 -2 -334 -1 -4 -151 -9 -333 -10 l-333 -3
0 -125 0 -125 329 -3 c182 -1 332 -6 335 -11 4 -5 6 -156 6 -335 l-1 -326 127
0 c124 0 127 1 130 23 3 12 4 163 3 334 l-1 313 332 2 332 3 -61 127 -61 128
-271 0 -270 0 0 333 0 332 -130 2 -130 2 -1 -327z"/>
    <path d="M1513 2092 c2 -4 19 -38 37 -77 18 -38 94 -194 168 -345 74 -151 164
-336 200 -410 35 -74 134 -276 218 -447 l153 -313 150 0 c83 0 151 2 151 5 0
5 -97 208 -248 515 -165 338 -395 809 -465 953 l-62 127 -153 -1 c-83 0 -151
-4 -149 -7z"/>
  </g>
</svg>
